<svg width="163" height="56" viewBox="0 0 163 56" fill="none" xmlns="http://www.w3.org/2000/svg">
<g clip-path="url(#clip0_156_112)">
<path d="M149.439 0.320312H10.5214C9.61409 0.334479 8.70903 0.417207 7.81377 0.567813C6.91867 0.724917 6.05168 1.01689 5.24148 1.43406C4.42596 1.85189 3.68473 2.40489 3.04827 3.07031C2.39791 3.71778 1.85805 4.47054 1.45074 5.29781C1.03999 6.12067 0.752514 7.00122 0.597828 7.91031C0.446746 8.81899 0.369767 9.73878 0.367676 10.6603C0.367676 11.0866 0.367676 11.5128 0.367676 11.9253V43.7153C0.367676 44.1416 0.367676 44.5541 0.367676 44.9803C0.369767 45.9018 0.446746 46.8216 0.597828 47.7303C0.75239 48.6438 1.03984 49.5289 1.45074 50.3566C1.86183 51.1774 2.40135 51.925 3.04827 52.5703C3.68577 53.2308 4.42694 53.7791 5.24148 54.1928C6.05168 54.61 6.91867 54.902 7.81377 55.0591C8.70903 55.2097 9.61409 55.2924 10.5214 55.3066H152.16C153.067 55.293 153.972 55.2103 154.867 55.0591C155.766 54.8999 156.638 54.6081 157.453 54.1928C158.266 53.7755 159.006 53.2276 159.646 52.5703C160.285 51.9178 160.824 51.1716 161.244 50.3566C161.645 49.5258 161.927 48.6416 162.083 47.7303C162.232 46.8211 162.314 45.9019 162.327 44.9803C162.327 44.5541 162.327 44.1416 162.327 43.7153V11.9253C162.327 11.5128 162.327 11.0866 162.327 10.6603C162.314 9.73874 162.232 8.81949 162.083 7.91031C161.927 7.00341 161.645 6.12374 161.244 5.29781C160.827 4.47636 160.288 3.72504 159.646 3.07031C159.006 2.41299 158.266 1.86509 157.453 1.44781C156.638 1.03253 155.766 0.740686 154.867 0.581562C153.972 0.430346 153.067 0.347614 152.16 0.334062H149.452L149.439 0.320312Z" fill="#B7B7B7"/>
<path d="M11.767 54.1103H10.5486C9.70165 54.1252 8.85496 54.07 8.01688 53.9453C7.22655 53.7879 6.46426 53.5097 5.75597 53.1203C5.05767 52.7716 4.42164 52.3069 3.87414 51.7453C3.32056 51.1846 2.86299 50.534 2.52031 49.8203C2.15975 49.1022 1.90869 48.3326 1.7757 47.5378C1.63805 46.6877 1.56563 45.8281 1.55908 44.9666C1.55908 44.6778 1.55908 43.7016 1.55908 43.7016V11.9253C1.55908 11.9253 1.55908 10.9766 1.55908 10.7016C1.56508 9.84006 1.63751 8.98034 1.7757 8.13032C1.89962 7.32639 2.14628 6.54702 2.50677 5.82032C2.84654 5.10486 3.30444 4.45379 3.8606 3.89532C4.41775 3.33919 5.05731 2.87522 5.75597 2.52032C6.46308 2.15413 7.22084 1.89914 8.00334 1.76407C8.84481 1.62356 9.6958 1.55001 10.5486 1.54407H152.146C152.99 1.55132 153.832 1.62487 154.664 1.76407C155.45 1.90203 156.212 2.15684 156.925 2.52032C158.329 3.2418 159.472 4.39727 160.188 5.82032C160.54 6.53597 160.786 7.30044 160.919 8.08907C161.054 8.94432 161.131 9.80805 161.149 10.6741V11.8978C161.149 12.4203 161.149 12.9153 161.149 13.4103V42.2028C161.149 42.7116 161.149 43.1928 161.149 43.6878V44.9666C161.132 45.8189 161.055 46.669 160.919 47.5103C160.79 48.3087 160.544 49.0828 160.188 49.8066C159.839 50.5125 159.382 51.1576 158.834 51.7178C158.282 52.2801 157.642 52.7448 156.939 53.0928C156.235 53.4979 155.472 53.7857 154.678 53.9453C153.841 54.0885 152.995 54.162 152.146 54.1653H11.767V54.1103Z" fill="black"/>
<path d="M33.8754 28.2328C33.8873 27.0844 34.1868 25.958 34.7458 24.9597C35.3048 23.9614 36.1048 23.1241 37.0705 22.5266C36.457 21.6384 35.6481 20.9075 34.7082 20.392C33.7682 19.8765 32.7229 19.5905 31.6551 19.5566C29.3942 19.3091 27.1875 20.9316 26.0232 20.9316C24.8589 20.9316 23.0583 19.5566 21.1358 19.5566C19.8937 19.5976 18.6832 19.965 17.6226 20.6229C16.562 21.2808 15.6874 22.2067 15.0842 23.3103C12.5254 27.9716 14.4208 34.6953 16.9254 38.4628C18.1845 40.2916 19.6331 42.3266 21.5691 42.2441C23.505 42.1616 24.1413 41.0341 26.4158 41.0341C28.6902 41.0341 29.313 42.2441 31.2761 42.2028C33.2391 42.1616 34.5659 40.3741 35.7708 38.5316C36.6704 37.2328 37.3647 35.7993 37.8286 34.2828C36.6563 33.7818 35.6558 32.9404 34.9525 31.8641C34.2492 30.7878 33.8745 29.5246 33.8754 28.2328Z" fill="white"/>
<path d="M30.1251 17.1091C31.2191 15.7676 31.7578 14.0472 31.6278 12.3103C29.9497 12.4942 28.3998 13.3083 27.282 14.5928C26.1865 15.8651 25.6316 17.5262 25.7386 19.2128C26.5787 19.2212 27.4098 19.0363 28.1694 18.672C28.9291 18.3076 29.5977 17.7733 30.1251 17.1091Z" fill="white"/>
<path d="M57.6083 37.6378H51.2047L49.6613 42.2578H46.9536L53.0188 25.1803H55.8483L61.9135 42.2578H59.2058L57.6083 37.6378ZM51.868 35.5065H56.9449L54.4945 28.0128H54.4268L51.868 35.5065Z" fill="white"/>
<path d="M75.0184 36.0703C75.0184 39.9341 72.9741 42.4228 69.9009 42.4228C69.1168 42.4565 68.3392 42.2655 67.6569 41.8716C66.9746 41.4777 66.4152 40.8968 66.0425 40.1953V46.3553H63.4702V29.8553H65.9071V31.9453C66.3028 31.2539 66.8756 30.6843 67.5645 30.2969C68.2534 29.9096 69.0327 29.719 69.8197 29.7453C72.9741 29.6766 75.0184 32.1653 75.0184 36.0703ZM72.4326 36.0703C72.4326 33.5541 71.0788 31.9453 69.1969 31.9453C67.3151 31.9453 65.9748 33.6366 65.9748 36.0703C65.9748 38.5041 67.3286 40.2641 69.1969 40.2641C71.0652 40.2641 72.4326 38.5728 72.4326 36.0703Z" fill="white"/>
<path d="M88.5025 36.0703C88.5025 39.934 86.4717 42.4228 83.3985 42.4228C82.6141 42.4581 81.8358 42.2678 81.1532 41.8737C80.4707 41.4796 79.9115 40.8978 79.5401 40.1953V46.3553H76.9678V29.8553H79.4047V31.9453C79.7993 31.256 80.3699 30.6877 81.0562 30.3005C81.7425 29.9132 82.519 29.7214 83.3037 29.7453C86.4582 29.6765 88.5025 32.1653 88.5025 36.0703ZM85.9166 36.0703C85.9166 33.554 84.644 31.9453 82.681 31.9453C80.7179 31.9453 79.4724 33.6365 79.4724 36.0703C79.4724 38.504 80.7585 40.1953 82.681 40.1953C84.6034 40.1953 85.9166 38.5728 85.9166 36.0703Z" fill="white"/>
<path d="M97.4243 37.4454C97.6139 39.1366 99.2249 40.1954 101.486 40.1954C103.747 40.1954 105.128 39.0816 105.128 37.5554C105.128 36.0291 104.207 35.4379 102.027 34.8879L99.8477 34.3516C96.761 33.5954 95.3394 32.1379 95.3394 29.7591C95.3394 26.8029 97.8576 24.7816 101.445 24.7816C105.033 24.7816 107.443 26.8029 107.524 29.7591H104.938C104.789 28.0541 103.395 27.0091 101.378 27.0091C99.3603 27.0091 97.9659 28.0404 97.9659 29.5666C97.9659 30.7629 98.8459 31.4779 101.012 32.0279L102.867 32.4816C106.319 33.3066 107.754 34.7229 107.754 37.2116C107.754 40.4154 105.236 42.4091 101.256 42.4091C97.5326 42.4091 95.0145 40.4566 94.8521 37.3766L97.4243 37.4454Z" fill="white"/>
<path d="M113.183 26.8578V29.8003H115.512V31.8215H113.183V38.6965C113.183 39.7553 113.643 40.2503 114.672 40.2503C114.947 40.2674 115.223 40.2674 115.498 40.2503V42.2578C115.052 42.3432 114.598 42.3847 114.144 42.3815C111.653 42.3815 110.692 41.4328 110.692 39.0128V31.8215H108.864V29.8003H110.651V26.8578H113.183Z" fill="white"/>
<path d="M116.852 36.0703C116.852 32.1516 119.126 29.6903 122.674 29.6903C126.221 29.6903 128.482 32.1516 128.482 36.0703C128.482 39.9891 126.248 42.4091 122.674 42.4091C119.099 42.4091 116.852 39.9616 116.852 36.0703ZM125.923 36.0703C125.923 33.3891 124.704 31.7941 122.674 31.7941C120.643 31.7941 119.478 33.3203 119.478 36.0703C119.478 38.8203 120.683 40.3466 122.728 40.3466C124.772 40.3466 125.923 38.7241 125.923 36.0703Z" fill="white"/>
<path d="M130.566 29.8004H133.017V31.9454C133.181 31.2846 133.564 30.7012 134.101 30.2932C134.639 29.8851 135.298 29.6771 135.968 29.7041C136.26 29.6993 136.551 29.7317 136.835 29.8004V32.1929C136.482 32.0439 136.106 31.9601 135.725 31.9454C135.346 31.9172 134.967 31.9752 134.614 32.1151C134.261 32.255 133.943 32.4733 133.683 32.754C133.424 33.0347 133.229 33.3707 133.114 33.7375C132.999 34.1043 132.965 34.4926 133.017 34.8741V42.2579H130.566V29.8004Z" fill="white"/>
<path d="M148.423 38.6003C148.085 40.8553 145.919 42.409 143.157 42.409C139.583 42.409 137.376 39.9753 137.376 36.084C137.376 32.1928 139.596 29.649 143.049 29.649C146.501 29.649 148.572 32.014 148.572 35.7953V36.6615H139.908V36.8265C139.869 37.2846 139.927 37.7459 140.077 38.1796C140.227 38.6134 140.466 39.0099 140.778 39.3427C141.091 39.6755 141.469 39.9371 141.888 40.1102C142.308 40.2832 142.759 40.3638 143.211 40.3465C143.805 40.4029 144.401 40.2634 144.91 39.9489C145.42 39.6344 145.816 39.1615 146.041 38.6003H148.423ZM139.921 34.874H146.054C146.077 34.4627 146.015 34.0511 145.873 33.6651C145.731 33.2791 145.512 32.9271 145.23 32.6313C144.948 32.3355 144.608 32.1023 144.233 31.9464C143.857 31.7904 143.454 31.7152 143.049 31.7253C142.64 31.7235 142.234 31.8035 141.856 31.9608C141.477 32.118 141.133 32.3495 140.843 32.6418C140.552 32.9342 140.322 33.2819 140.163 33.6649C140.005 34.0479 139.923 34.4587 139.921 34.874Z" fill="white"/>
<path d="M51.5566 12.324C52.0878 12.286 52.6206 12.369 53.1161 12.567C53.6117 12.765 54.0574 13.0729 54.4207 13.4682C54.7841 13.8636 55.0558 14.3364 55.2161 14.8522C55.3765 15.3679 55.4213 15.9135 55.3474 16.449C55.3474 19.0615 53.9935 20.574 51.5566 20.574H48.6323V12.324H51.5566ZM49.8914 19.364H51.4077C51.7877 19.3952 52.1698 19.3388 52.5253 19.199C52.8809 19.0592 53.2007 18.8397 53.4611 18.5568C53.7214 18.2739 53.9155 17.9349 54.0287 17.5652C54.142 17.1955 54.1716 16.8045 54.1154 16.4215C54.169 16.039 54.1376 15.6492 54.0233 15.2806C53.909 14.9121 53.7149 14.5742 53.4551 14.2919C53.1954 14.0097 52.8766 13.7901 52.5223 13.6494C52.168 13.5087 51.7871 13.4505 51.4077 13.479H49.8914V19.364Z" fill="white"/>
<path d="M56.7685 17.4253C56.7414 17.0248 56.7957 16.6228 56.928 16.2445C57.0604 15.8661 57.2679 15.5195 57.5377 15.226C57.8075 14.9325 58.1338 14.6985 58.4964 14.5386C58.859 14.3786 59.2501 14.296 59.6454 14.296C60.0407 14.296 60.4318 14.3786 60.7944 14.5386C61.157 14.6985 61.4833 14.9325 61.7531 15.226C62.0229 15.5195 62.2304 15.8661 62.3627 16.2445C62.495 16.6228 62.5494 17.0248 62.5223 17.4253C62.5494 17.8259 62.495 18.2278 62.3627 18.6062C62.2304 18.9845 62.0229 19.3312 61.7531 19.6247C61.4833 19.9181 61.157 20.1521 60.7944 20.3121C60.4318 20.4721 60.0407 20.5546 59.6454 20.5546C59.2501 20.5546 58.859 20.4721 58.4964 20.3121C58.1338 20.1521 57.8075 19.9181 57.5377 19.6247C57.2679 19.3312 57.0604 18.9845 56.928 18.6062C56.7957 18.2278 56.7414 17.8259 56.7685 17.4253ZM61.2768 17.4253C61.2768 16.0503 60.6946 15.3078 59.6522 15.3078C58.6097 15.3078 58.014 16.0916 58.014 17.4253C58.014 18.7591 58.5556 19.5703 59.6522 19.5703C60.7488 19.5703 61.2632 18.7728 61.2632 17.4253H61.2768Z" fill="white"/>
<path d="M70.1583 20.5328H68.9128L67.6537 15.9678H67.559L66.2999 20.5328H65.0679L63.3892 14.3315H64.6076L65.7042 19.0615H65.7855L67.0445 14.3315H68.1953L69.4543 19.0615H69.5491L70.6322 14.3315H71.8371L70.1583 20.5328Z" fill="white"/>
<path d="M73.2447 14.3316H74.409V15.3216H74.5038C74.6535 14.9675 74.9095 14.6704 75.2353 14.4729C75.5611 14.2754 75.94 14.1874 76.3179 14.2216C76.6144 14.1976 76.9123 14.2419 77.1895 14.3511C77.4668 14.4603 77.7162 14.6316 77.9192 14.8523C78.1222 15.0731 78.2736 15.3374 78.362 15.6258C78.4504 15.9142 78.4736 16.2191 78.4299 16.5178V20.5328H77.225V16.8203C77.225 15.8166 76.7918 15.3216 75.8712 15.3216C75.6674 15.3028 75.4621 15.3311 75.2706 15.4045C75.0792 15.4779 74.9066 15.5944 74.7659 15.7453C74.6252 15.8961 74.52 16.0774 74.4581 16.2755C74.3963 16.4737 74.3795 16.6834 74.409 16.8891V20.5328H73.2041L73.2447 14.3316Z" fill="white"/>
<path d="M80.3389 11.9253H81.5709V20.5328H80.3659L80.3389 11.9253Z" fill="white"/>
<path d="M83.2226 17.4253C83.1955 17.0248 83.2498 16.6228 83.3821 16.2445C83.5145 15.8661 83.722 15.5195 83.9918 15.226C84.2616 14.9325 84.5879 14.6985 84.9505 14.5386C85.3131 14.3786 85.7042 14.296 86.0995 14.296C86.4948 14.296 86.8859 14.3786 87.2485 14.5386C87.6111 14.6985 87.9374 14.9325 88.2072 15.226C88.477 15.5195 88.6845 15.8661 88.8168 16.2445C88.9492 16.6228 89.0035 17.0248 88.9764 17.4253C89.0035 17.8259 88.9492 18.2278 88.8168 18.6062C88.6845 18.9845 88.477 19.3312 88.2072 19.6247C87.9374 19.9181 87.6111 20.1521 87.2485 20.3121C86.8859 20.4721 86.4948 20.5546 86.0995 20.5546C85.7042 20.5546 85.3131 20.4721 84.9505 20.3121C84.5879 20.1521 84.2616 19.9181 83.9918 19.6247C83.722 19.3312 83.5145 18.9845 83.3821 18.6062C83.2498 18.2278 83.1955 17.8259 83.2226 17.4253ZM87.7309 17.4253C87.7309 16.0503 87.1352 15.3078 86.0927 15.3078C85.0503 15.3078 84.4681 16.0916 84.4681 17.4253C84.4681 18.7591 85.0503 19.5703 86.0927 19.5703C87.1352 19.5703 87.7309 18.7728 87.7309 17.4253Z" fill="white"/>
<path d="M90.2354 18.7728C90.2354 17.659 91.0477 17.0265 92.5098 16.9303L94.1615 16.8203V16.284C94.1615 15.6378 93.7282 15.2665 92.9024 15.2665C92.0766 15.2665 91.7652 15.514 91.6433 15.954H90.4655C90.6009 14.8815 91.5757 14.2078 92.9566 14.2078C94.3375 14.2078 95.3528 14.9778 95.3528 16.284V20.5328H94.1885V19.6528H94.0938C93.904 19.9676 93.634 20.2246 93.3123 20.3964C92.9905 20.5683 92.6291 20.6486 92.2661 20.629C92.01 20.6559 91.7512 20.628 91.5064 20.547C91.2616 20.4661 91.0362 20.3338 90.8449 20.1589C90.6535 19.984 90.5004 19.7702 90.3954 19.5315C90.2904 19.2927 90.2359 19.0342 90.2354 18.7728ZM94.1615 18.1953V17.6728L92.6722 17.769C91.8329 17.769 91.4403 18.1265 91.4403 18.6628C91.4403 19.199 91.9276 19.5428 92.5775 19.5428C92.7693 19.5636 92.9632 19.5449 93.1477 19.4879C93.3322 19.4308 93.5035 19.3366 93.6514 19.2108C93.7992 19.0851 93.9206 18.9303 94.0083 18.7558C94.0959 18.5813 94.148 18.3907 94.1615 18.1953Z" fill="white"/>
<path d="M96.937 17.4253C96.937 15.4728 97.9253 14.2353 99.4687 14.2353C99.8493 14.2187 100.227 14.3119 100.557 14.5041C100.888 14.6964 101.158 14.9798 101.337 15.3215H101.418V11.9253H102.623V20.5328H101.472V19.5703H101.378C101.186 19.9086 100.906 20.1872 100.57 20.3762C100.234 20.5652 99.8528 20.6574 99.4687 20.6428C97.9118 20.629 96.937 19.3915 96.937 17.4253ZM98.1825 17.4253C98.1825 18.8003 98.7918 19.529 99.8071 19.529C100.823 19.529 101.445 18.7315 101.445 17.439C101.445 16.1465 100.809 15.3353 99.8071 15.3353C98.8053 15.3353 98.1825 16.1328 98.1825 17.4253Z" fill="white"/>
<path d="M107.605 17.4253C107.578 17.0248 107.633 16.6228 107.765 16.2445C107.897 15.8661 108.105 15.5195 108.375 15.226C108.644 14.9325 108.971 14.6985 109.333 14.5386C109.696 14.3786 110.087 14.296 110.482 14.296C110.878 14.296 111.269 14.3786 111.631 14.5386C111.994 14.6985 112.32 14.9325 112.59 15.226C112.86 15.5195 113.067 15.8661 113.2 16.2445C113.332 16.6228 113.386 17.0248 113.359 17.4253C113.386 17.8259 113.332 18.2278 113.2 18.6062C113.067 18.9845 112.86 19.3312 112.59 19.6247C112.32 19.9181 111.994 20.1521 111.631 20.3121C111.269 20.4721 110.878 20.5546 110.482 20.5546C110.087 20.5546 109.696 20.4721 109.333 20.3121C108.971 20.1521 108.644 19.9181 108.375 19.6247C108.105 19.3312 107.897 18.9845 107.765 18.6062C107.633 18.2278 107.578 17.8259 107.605 17.4253ZM112.114 17.4253C112.114 16.0503 111.518 15.3078 110.489 15.3078C109.46 15.3078 108.851 16.0916 108.851 17.4253C108.851 18.7591 109.433 19.5703 110.489 19.5703C111.545 19.5703 112.114 18.7728 112.114 17.4253Z" fill="white"/>
<path d="M114.97 14.3316H116.121V15.3216H116.215C116.371 14.9689 116.63 14.6738 116.957 14.4768C117.285 14.2799 117.664 14.1907 118.043 14.2216C118.339 14.1998 118.635 14.2457 118.91 14.3559C119.186 14.466 119.434 14.6377 119.635 14.8581C119.837 15.0786 119.987 15.3421 120.074 15.6294C120.162 15.9167 120.185 16.2203 120.142 16.5178V20.5328H118.95V16.8203C118.95 15.8166 118.517 15.3216 117.596 15.3216C117.394 15.305 117.19 15.335 117 15.4093C116.81 15.4837 116.64 15.6005 116.501 15.7511C116.361 15.9017 116.257 16.0822 116.196 16.2792C116.135 16.4762 116.119 16.6847 116.148 16.8891V20.5328H114.943L114.97 14.3316Z" fill="white"/>
<path d="M126.952 12.7915V14.3728H128.305V15.4453H126.952V18.6353C126.952 19.2815 127.209 19.5703 127.805 19.5703H128.265V20.5878C128.049 20.6031 127.831 20.6031 127.615 20.5878C126.261 20.5878 125.747 20.1203 125.747 18.924V15.4453H124.772V14.4278H125.747V12.7915H126.952Z" fill="white"/>
<path d="M129.903 11.9253H131.108V15.3353H131.203C131.357 14.9836 131.613 14.6884 131.937 14.4893C132.262 14.2901 132.638 14.1967 133.017 14.2215C133.312 14.2045 133.607 14.2541 133.882 14.3668C134.156 14.4795 134.402 14.6525 134.603 14.8733C134.804 15.0942 134.953 15.3574 135.042 15.6441C135.131 15.9308 135.156 16.2339 135.115 16.5315V20.5328H133.91V16.8203C133.91 15.8303 133.463 15.3353 132.556 15.3353C132.35 15.3187 132.142 15.3479 131.947 15.4208C131.752 15.4938 131.576 15.6087 131.429 15.7577C131.282 15.9067 131.169 16.0862 131.097 16.2839C131.025 16.4816 130.997 16.6927 131.013 16.9028V20.5328H129.903V11.9253Z" fill="white"/>
<path d="M142.169 18.8553C142.005 19.4344 141.641 19.934 141.143 20.2624C140.646 20.5907 140.048 20.7258 139.461 20.6428C139.057 20.6646 138.653 20.5942 138.279 20.4366C137.905 20.2791 137.571 20.0384 137.301 19.7324C137.031 19.4264 136.832 19.0628 136.718 18.6683C136.605 18.2737 136.58 17.8584 136.645 17.4528C136.593 17.0473 136.627 16.6351 136.744 16.244C136.862 15.853 137.061 15.4921 137.328 15.1859C137.595 14.8796 137.924 14.6351 138.292 14.4687C138.659 14.3024 139.058 14.2181 139.461 14.2215C141.153 14.2215 142.169 15.3903 142.169 17.3428V17.769H137.877V17.8378C137.861 18.067 137.894 18.2971 137.972 18.5126C138.051 18.7282 138.173 18.9244 138.332 19.0882C138.491 19.252 138.682 19.3796 138.893 19.4628C139.104 19.5459 139.33 19.5825 139.556 19.5703C139.845 19.6035 140.139 19.5496 140.398 19.4151C140.658 19.2807 140.874 19.0717 141.018 18.814L142.169 18.8553ZM137.945 16.8203H141.018C141.033 16.6121 141.005 16.403 140.936 16.2063C140.867 16.0097 140.758 15.8299 140.617 15.6784C140.475 15.527 140.304 15.4072 140.114 15.3268C139.925 15.2464 139.721 15.2071 139.515 15.2115C139.307 15.2097 139.101 15.2501 138.909 15.3305C138.716 15.4108 138.542 15.5295 138.396 15.6794C138.249 15.8294 138.134 16.0076 138.056 16.2035C137.979 16.3995 137.941 16.6092 137.945 16.8203Z" fill="white"/>
</g>
<defs>
<clipPath id="clip0_156_112">
<rect width="162" height="55" fill="white" transform="translate(0.34082 0.320312)"/>
</clipPath>
</defs>
</svg>
