<svg width="1920" height="1081" viewBox="0 0 1920 1081" fill="none" xmlns="http://www.w3.org/2000/svg">
<path fill-rule="evenodd" clip-rule="evenodd" d="M1049.07 -164.817C1218.7 -139.008 1345.98 -6.03405 1463 119.44C1569.93 234.095 1981.01 -159.701 2048.99 -18.4226C2142.39 175.695 1979.89 888.999 1934.61 1099.6C1889.03 1311.58 1677.69 1469.89 1469.84 1531.61C1278.04 1588.56 1095.26 1438.49 897.584 1407.55C717.487 1379.36 513.806 1466.01 366.322 1358.87C215.86 1249.58 195.372 1040.56 145.68 861.35C92.9191 671.075 -14.0869 467.401 69.5259 288.523C152.867 110.228 378.302 64.2399 556.913 -18.4226C716.138 -92.1127 875.618 -191.208 1049.07 -164.817Z" fill="url(#paint0_linear_206_52)"/>
<path fill-rule="evenodd" clip-rule="evenodd" d="M618.496 -726.897C776.37 -618.823 841.401 -429.716 942.614 -267.357C1044.6 -103.763 1197.32 37.6338 1214.78 229.62C1232.96 429.676 1189.75 660.494 1039.03 793.296C890.025 924.59 647.119 815.523 463.618 891.478C284.833 965.481 194.674 1231.39 1.36942 1222.81C-187.539 1214.42 -286.35 992.839 -413.132 852.543C-527.068 726.462 -659.642 609.49 -701.667 444.834C-743.4 281.317 -714.187 105.267 -642.896 -47.6939C-576.473 -190.212 -417.03 -254.356 -318.634 -377.001C-186.211 -542.058 -165.304 -816.064 32.9407 -890.082C226.688 -962.422 447.841 -843.721 618.496 -726.897Z" fill="url(#paint1_linear_206_52)"/>
<path fill-rule="evenodd" clip-rule="evenodd" d="M876.649 -461.731C1021.56 -600.518 1007.03 -900.925 1201.32 -951.044C1385.98 -998.677 1527.45 -779.588 1683.41 -669.835C1835.72 -562.645 2054.8 -499.146 2100.14 -318.501C2145.45 -137.989 2135.17 104.647 2076.73 281.342C2021.75 447.544 1895 561.767 1768.83 683.122C1640.27 806.78 1434.63 839.461 1260.36 801.388C1101.24 766.627 1034.46 580.33 897.183 492.693C753.619 401.043 535.537 426.071 445.737 281.342C353.581 132.816 360.965 -78.9897 448.651 -230.198C532.063 -374.035 756.565 -346.725 876.649 -461.731Z" fill="url(#paint2_linear_206_52)"/>
<defs>
<linearGradient id="paint0_linear_206_52" x1="1236.43" y1="1661.31" x2="994.873" y2="838.622" gradientUnits="userSpaceOnUse">
<stop stop-color="#FFF06A"/>
<stop offset="1" stop-color="#FFA800"/>
</linearGradient>
<linearGradient id="paint1_linear_206_52" x1="1539.27" y1="361.995" x2="-87.9044" y2="894.893" gradientUnits="userSpaceOnUse">
<stop stop-color="#FFF06A"/>
<stop offset="1" stop-color="#FFA800"/>
</linearGradient>
<linearGradient id="paint2_linear_206_52" x1="1226.16" y1="1196.23" x2="1135.22" y2="66.1641" gradientUnits="userSpaceOnUse">
<stop stop-color="#FFF06A"/>
<stop offset="1" stop-color="#FFA800"/>
</linearGradient>
</defs>
</svg>
