<svg width="28" height="32" viewBox="0 0 28 32" fill="none" xmlns="http://www.w3.org/2000/svg">
<path d="M4.55418 12.3733V20.5401C4.55418 21.6256 3.70116 22.4933 2.61458 22.4933C1.53589 22.4933 0.492188 21.6188 0.492188 20.5401V12.3733C0.492188 11.3081 1.53589 10.4337 2.61458 10.4337C3.67973 10.4337 4.55418 11.3081 4.55418 12.3733ZM5.31581 23.4456C5.31581 24.6021 6.24668 25.533 7.40322 25.533H8.80687L8.8283 29.8421C8.8283 32.444 12.721 32.4237 12.721 29.8421V25.533H15.3444V29.8421C15.3444 32.4305 19.2586 32.4373 19.2586 29.8421V25.533H20.6826C20.9557 25.5321 21.2261 25.4774 21.4781 25.372C21.7301 25.2666 21.9589 25.1126 22.1514 24.9187C22.3439 24.7249 22.4963 24.495 22.5999 24.2422C22.7035 23.9895 22.7563 23.7188 22.7553 23.4456V10.7947H5.31581V23.4456ZM22.805 10.1098H5.23795C5.23795 7.09155 7.04328 4.46818 9.72307 3.10064L8.37584 0.611538C8.17838 0.266269 8.67936 0.0473724 8.84861 0.342995L10.2162 2.85353C12.677 1.76018 15.5058 1.8166 17.8538 2.85353L19.2146 0.349765C19.3906 0.0462441 19.8848 0.27191 19.6874 0.618308L18.3401 3.10064C20.9985 4.46818 22.8038 7.09268 22.8038 10.1098H22.805ZM10.7668 6.19565C10.7668 5.99934 10.6888 5.81107 10.55 5.67226C10.4112 5.53345 10.2229 5.45547 10.0266 5.45547C9.62491 5.45547 9.30784 5.79397 9.30784 6.19565C9.30784 6.59734 9.6328 6.93584 10.0266 6.93584C10.4429 6.93584 10.7668 6.59734 10.7668 6.19565ZM18.7644 6.19565C18.7653 6.00255 18.6904 5.8168 18.5558 5.67837C18.4212 5.53994 18.2376 5.4599 18.0445 5.45547C17.8482 5.45547 17.6599 5.53345 17.5211 5.67226C17.3823 5.81107 17.3043 5.99934 17.3043 6.19565C17.3043 6.39196 17.3823 6.58023 17.5211 6.71904C17.6599 6.85785 17.8482 6.93584 18.0445 6.93584C18.4394 6.93584 18.7644 6.59734 18.7644 6.19565ZM25.4498 10.4348C24.3846 10.4348 23.5102 11.2878 23.5102 12.3744V20.5413C23.5102 21.6267 24.3846 22.4944 25.4498 22.4944C26.5363 22.4944 27.5722 21.6199 27.5722 20.5413V12.3744C27.5722 11.2889 26.5284 10.4348 25.4498 10.4348Z" fill="#FFFAE9"/>
</svg>
