<svg width="26" height="31" viewBox="0 0 26 31" fill="none" xmlns="http://www.w3.org/2000/svg">
<path d="M8.20134 30.4837C7.20196 30.4295 6.26151 29.9937 5.57415 29.2662C4.75181 28.4751 4.01798 27.5968 3.38562 26.647C2.3978 25.2325 1.61697 23.6842 1.06676 22.049C0.444055 20.2898 0.11647 18.4397 0.0972532 16.5737C0.0488772 14.7427 0.502314 12.9333 1.40847 11.3415C2.07214 10.1942 3.01877 9.23605 4.15804 8.55859C5.28471 7.88401 6.57038 7.52091 7.88347 7.50644C8.87335 7.565 9.84609 7.79126 10.7602 8.17556C11.4897 8.4966 12.2558 8.72229 13.0425 8.84626C13.9103 8.66447 14.7583 8.39831 15.5743 8.05159C16.5401 7.67449 17.5627 7.46331 18.5989 7.42697C18.7371 7.42697 18.8738 7.42697 19.0057 7.44287C21.2785 7.50803 23.3923 8.62375 24.7274 10.4626C23.6855 11.0199 22.8185 11.8552 22.2228 12.8757C21.6271 13.8961 21.3261 15.0618 21.3532 16.2431C21.3428 17.1464 21.524 18.0416 21.8848 18.8698C22.2456 19.6979 22.7778 20.4402 23.4464 21.0477C24.055 21.6274 24.7637 22.0921 25.538 22.4193C25.379 22.8961 25.1963 23.357 25.0024 23.8211C24.5621 24.8466 24.019 25.8249 23.3812 26.7407C22.7782 27.6582 22.0763 28.5067 21.288 29.271C20.5691 29.9844 19.6107 30.4053 18.5989 30.4519C17.7412 30.4139 16.8986 30.2127 16.1163 29.859C15.2727 29.4915 14.3661 29.2903 13.4462 29.2662C12.5004 29.2849 11.5669 29.485 10.6966 29.8559C9.94493 30.195 9.14184 30.4061 8.32054 30.4805L8.20134 30.4837ZM13.2078 7.42697C13.0886 7.42697 12.9694 7.42697 12.8502 7.41267C12.8251 7.22348 12.8118 7.03292 12.8105 6.84209C12.8624 5.25455 13.4829 3.73847 14.5587 2.56992C15.1605 1.89835 15.8899 1.35322 16.7044 0.966269C17.4634 0.575535 18.2928 0.340473 19.144 0.274902C19.1679 0.483107 19.1679 0.686544 19.1679 0.880445C19.1455 2.44304 18.5584 3.94475 17.5149 5.10811C17.0097 5.78553 16.3623 6.34414 15.6183 6.74474C14.8742 7.14533 14.0514 7.37819 13.2078 7.42697Z" fill="#FFFAE9"/>
</svg>
