<svg width="21" height="21" viewBox="0 0 21 21" fill="none" xmlns="http://www.w3.org/2000/svg">
<path d="M10.3995 0.918457C4.86391 0.918457 0.375488 5.40688 0.375488 10.9424C0.375488 16.478 4.86391 20.9664 10.3995 20.9664C15.9351 20.9664 20.4235 16.478 20.4235 10.9424C20.4235 5.40688 15.9351 0.918457 10.3995 0.918457ZM10.3995 19.2659C5.80366 19.2659 2.07599 15.5383 2.07599 10.9424C2.07599 6.34663 5.80366 2.61896 10.3995 2.61896C14.9953 2.61896 18.723 6.34663 18.723 10.9424C18.723 15.5383 14.9953 19.2659 10.3995 19.2659ZM10.5248 7.34679C11.7107 7.34679 12.5162 8.10306 12.6057 9.21286C12.6124 9.30684 12.6907 9.37844 12.7847 9.37844H14.0533C14.1115 9.37844 14.1585 9.33145 14.1585 9.27328C14.1585 7.33336 12.628 5.9752 10.5181 5.9752C8.05906 5.9752 6.64048 7.63543 6.64048 10.3786V11.5488C6.64048 14.2718 8.05906 15.9097 10.5181 15.9097C12.6213 15.9097 14.1585 14.594 14.1585 12.7459C14.1585 12.6877 14.1115 12.6407 14.0533 12.6407H12.7824C12.6884 12.6407 12.6124 12.7123 12.6034 12.804C12.5094 13.8355 11.7062 14.5448 10.5225 14.5448C9.06146 14.5448 8.23806 13.4731 8.23806 11.5555V10.3786C8.24029 8.43198 9.06593 7.34679 10.5248 7.34679Z" fill="black"/>
</svg>
