<svg width="32" height="26" viewBox="0 0 32 26" fill="none" xmlns="http://www.w3.org/2000/svg">
<path d="M31.5162 8.05828V20.6915C31.5162 21.9796 31.0234 23.2188 30.1388 24.1551C29.2542 25.0913 28.0449 25.6536 26.7589 25.7265L26.4734 25.7343H5.52663C4.23858 25.7343 2.99932 25.2415 2.06307 24.3569C1.12682 23.4723 0.564569 22.263 0.491645 20.977L0.483887 20.6915V8.05828L15.4601 15.9032C15.6267 15.9905 15.8119 16.0361 16 16.0361C16.1881 16.0361 16.3734 15.9905 16.54 15.9032L31.5162 8.05828ZM5.52663 0.908447H26.4734C27.7234 0.908297 28.9288 1.37237 29.856 2.21067C30.7832 3.04896 31.366 4.20172 31.4913 5.44536L16 13.5603L0.508713 5.44536C0.628999 4.25111 1.17133 3.13892 2.03822 2.30872C2.9051 1.47852 4.03969 0.984766 5.23803 0.916206L5.52663 0.908447H26.4734H5.52663Z" fill="#FFFAE9"/>
</svg>
