<svg width="59" height="59" viewBox="0 0 59 59" fill="none" xmlns="http://www.w3.org/2000/svg">
<circle cx="29.4527" cy="29.4576" r="27.6327" transform="rotate(180 29.4527 29.4576)" stroke="white" stroke-opacity="0.8" stroke-width="2"/>
<path d="M26.5628 15.1283C26.8687 15.1273 27.1709 15.194 27.4473 15.3236C27.7237 15.4532 27.9672 15.6423 28.16 15.8771L38.0503 28.0186C38.3515 28.3807 38.5161 28.8349 38.5161 29.3036C38.5161 29.7723 38.3515 30.2265 38.0503 30.5886L27.8119 42.7302C27.4643 43.1434 26.9648 43.4033 26.4234 43.4526C25.8819 43.502 25.3428 43.3367 24.9246 42.9932C24.5065 42.6497 24.2435 42.1562 24.1936 41.6211C24.1436 41.086 24.3109 40.5532 24.6584 40.14L33.8116 29.2935L24.9656 18.447C24.7152 18.15 24.5561 17.7883 24.5072 17.4047C24.4583 17.0211 24.5216 16.6318 24.6897 16.2826C24.8577 15.9335 25.1234 15.6393 25.4553 15.4347C25.7873 15.2301 26.1716 15.1238 26.5628 15.1283Z" fill="white"/>
</svg>
