<svg width="28" height="32" viewBox="0 0 28 32" fill="none" xmlns="http://www.w3.org/2000/svg">
<path d="M26.3569 8.01021C24.8082 7.66965 23.4073 6.84726 22.355 5.66105C21.3028 4.47484 20.6534 2.98578 20.5 1.40757V0.723999H15.1402V21.9612C15.1413 22.9035 14.8458 23.8223 14.2957 24.5874C13.7456 25.3525 12.9687 25.9251 12.0751 26.2241C11.1815 26.5232 10.2164 26.5334 9.31662 26.2535C8.41683 25.9736 7.62792 25.4176 7.06166 24.6644C6.55434 23.9977 6.24369 23.2023 6.16483 22.3682C6.08598 21.5342 6.24206 20.6947 6.61544 19.9447C6.98882 19.1947 7.56459 18.5641 8.27765 18.1243C8.99071 17.6845 9.8126 17.4529 10.6504 17.4559C11.1137 17.4532 11.5747 17.5213 12.0175 17.6578V12.2204C11.5023 12.1565 10.983 12.1306 10.464 12.1427C8.55201 12.1938 6.69645 12.8013 5.1245 13.8909C3.55255 14.9804 2.33244 16.5047 1.61359 18.2771C0.894736 20.0495 0.708333 21.9931 1.07721 23.8698C1.44608 25.7466 2.35423 27.475 3.69043 28.8435C5.05987 30.2358 6.8123 31.1896 8.72505 31.5836C10.6378 31.9777 12.6245 31.7943 14.4328 31.0567C16.241 30.319 17.7892 29.0605 18.8806 27.441C19.9719 25.8215 20.5572 23.9141 20.5621 21.9612V11.0863C22.7238 12.6304 25.316 13.4564 27.9726 13.4477V8.16556C27.4508 8.16771 26.9301 8.11565 26.419 8.01021H26.3569Z" fill="#FFFAE9"/>
</svg>
